<svg width="9" height="9" fill="none" xmlns="http://www.w3.org/2000/svg"><path d="M4.5.004C2.657.004.907-.159.238 1.554c-.276.71-.236 1.63-.236 2.946 0 1.156-.037 2.242.236 2.944C.905 9.16 2.67 8.994 4.5 8.994c1.765 0 3.585.184 4.262-1.55.276-.716.236-1.622.236-2.945 0-1.756.097-2.89-.756-3.74-.863-.863-2.03-.755-3.743-.755H4.5zm-.403.81c3.845-.006 4.334-.433 4.064 5.5-.096 2.099-1.695 1.868-3.66 1.868C.917 8.182.814 8.08.814 4.497c0-3.624.284-3.68 3.283-3.684v.001zm2.804.747a.54.54 0 100 1.078.54.54 0 000-1.078zm-2.4.63a2.31 2.31 0 10-.002 4.618A2.31 2.31 0 004.5 2.191zm0 .81c1.981 0 1.984 2.997 0 2.997S2.514 3 4.5 3z" fill="#000"/></svg>