<svg width="89" height="42" fill="none" xmlns="http://www.w3.org/2000/svg"><path d="M7.654 26.204H.101c.215-.811.346-1.957.394-3.437.047-1.503.071-3.281.071-5.333v-5.155a170 170 0 00-.071-5.298C.447 5.477.315 4.32.1 3.508h6.766c2.29 0 3.985.478 5.083 1.432 1.122.955 1.683 2.16 1.683 3.616 0 1.121-.382 2.207-1.146 3.257-.74 1.026-1.85 1.707-3.33 2.04v.072c2.125.31 3.64.99 4.547 2.04.907 1.051 1.36 2.304 1.36 3.76 0 1.957-.728 3.532-2.183 4.725-1.432 1.17-3.174 1.754-5.227 1.754zM2.678 6.837v5.728c0 .43.06.716.18.86.142.119.333.178.572.178h3.007c1.48 0 2.65-.477 3.508-1.432.883-.978 1.325-2.136 1.325-3.472 0-1.026-.394-1.98-1.181-2.864-.764-.907-1.993-1.36-3.688-1.36H4.97c-.835 0-1.432.179-1.79.537-.334.358-.5.966-.5 1.825zm0 7.804v8.234c0 .86.167 1.468.501 1.826.358.358.955.537 1.79.537H6.58c1.862 0 3.318-.526 4.368-1.575 1.074-1.05 1.61-2.363 1.61-3.938 0-1.742-.596-3.02-1.79-3.83-1.193-.836-2.648-1.254-4.367-1.254H2.678zm24.204 11.993c-2.625 0-4.749-.812-6.372-2.435-1.599-1.622-2.398-3.746-2.398-6.372 0-1.169.19-2.29.573-3.365a7.878 7.878 0 011.682-2.792c.74-.811 1.659-1.456 2.756-1.933 1.098-.501 2.351-.752 3.76-.752 2.624 0 4.736.812 6.335 2.435 1.623 1.622 2.435 3.746 2.435 6.372 0 1.169-.191 2.29-.573 3.365a8.25 8.25 0 01-1.683 2.828c-.74.787-1.658 1.432-2.756 1.933-1.098.477-2.35.716-3.759.716zm0-.931c1.933 0 3.437-.74 4.51-2.22 1.098-1.503 1.647-3.412 1.647-5.727 0-2.291-.549-4.177-1.646-5.656-1.074-1.48-2.578-2.22-4.51-2.22-1.934 0-3.45.752-4.547 2.255-1.074 1.48-1.611 3.377-1.611 5.692 0 2.315.537 4.2 1.61 5.656 1.099 1.456 2.614 2.196 4.547 2.22zm12.514.501c.12-.19.203-.549.25-1.074.072-.549.108-1.17.108-1.861.024-.716.036-1.48.036-2.291v-6.229c0-.812-.012-1.563-.036-2.256 0-.716-.036-1.336-.107-1.861-.048-.549-.132-.919-.25-1.11h3.078c-.167.263-.275.848-.322 1.754a53.72 53.72 0 00-.072 2.9c.644-1.551 1.515-2.745 2.613-3.58 1.098-.859 2.124-1.289 3.079-1.289.31 0 .62.036.93.108.31.071.621.19.931.358-.215.262-.382.644-.5 1.145-.12.502-.192.943-.216 1.325a3.208 3.208 0 00-1.11-.537 3.843 3.843 0 00-1.288-.215c-1.384 0-2.47.668-3.258 2.005-.763 1.312-1.157 2.911-1.181 4.797v1.468c0 1.36.012 2.696.036 4.009.024 1.312.143 2.124.358 2.434h-3.079zM59.535 9.952c-1.098 0-2.04.227-2.828.68a5.557 5.557 0 00-1.898 1.754c-.477.74-.835 1.587-1.074 2.542a12.208 12.208 0 00-.358 2.971c0 .811.072 1.67.215 2.577.167.907.454 1.743.86 2.506a5.675 5.675 0 001.682 1.933c.716.502 1.623.752 2.72.752 1.05 0 2.124-.298 3.222-.895 1.098-.596 1.91-1.372 2.435-2.327v-9.808c-.454-.883-1.146-1.552-2.077-2.005a6.396 6.396 0 00-2.9-.68zm7.23-5.549v17.219c0 1.17.12 2.088.359 2.756.239.669.728 1.158 1.468 1.468v.68c-1.313 0-2.208-.179-2.685-.537-.478-.381-.836-.942-1.074-1.682-.883.787-1.838 1.372-2.864 1.754a9.064 9.064 0 01-3.186.573c-2.768 0-4.809-.836-6.122-2.506-1.288-1.67-1.933-3.735-1.933-6.193 0-2.84.812-5.036 2.435-6.587 1.646-1.575 3.627-2.363 5.942-2.363.883 0 1.802.108 2.757.322a7.005 7.005 0 012.649 1.182v-5.8c0-.74-.048-1.431-.144-2.076-.071-.644-.226-1.157-.465-1.54A7.8 7.8 0 0065.334.68c.43-.19.871-.417 1.325-.68.047.764.071 1.515.071 2.255.024.716.036 1.432.036 2.148zM80.23 26.634c-2.626 0-4.75-.812-6.373-2.435-1.599-1.622-2.398-3.746-2.398-6.372 0-1.169.191-2.29.573-3.365a7.88 7.88 0 011.682-2.792c.74-.811 1.659-1.456 2.757-1.933 1.098-.501 2.35-.752 3.759-.752 2.625 0 4.737.812 6.336 2.435C88.189 13.042 89 15.166 89 17.792a9.97 9.97 0 01-.573 3.365 8.25 8.25 0 01-1.682 2.828c-.74.787-1.659 1.432-2.757 1.933-1.097.477-2.35.716-3.758.716zm0-.931c1.933 0 3.436-.74 4.51-2.22 1.098-1.503 1.647-3.412 1.647-5.727 0-2.291-.55-4.177-1.647-5.656-1.074-1.48-2.577-2.22-4.51-2.22-1.934 0-3.449.752-4.547 2.255-1.074 1.48-1.61 3.377-1.61 5.692 0 2.315.536 4.2 1.61 5.656 1.098 1.456 2.613 2.196 4.547 2.22zM9.532 39.278c-.374-.075-.91-.268-.918-.762-.008-.872 1.3-1.04 1.844-.52l.264-.285c-.816-.754-2.541-.444-2.541.805.008.695.612 1.039 1.266 1.148.39.075.977.318.986.796-.077 1.03-1.556 1.056-2.074.352a8.052 8.052 0 01-.263.268c.314.402.807.611 1.317.611.629 0 1.453-.385 1.453-1.223 0-.712-.663-1.056-1.334-1.19zm7.328-1.089c.28-.336.697-.486 1.181-.478.858.034 1.538.603 1.547 1.492v2.413h.442v-2.413c0-1.199-.859-1.877-1.972-1.894-.425 0-.892.15-1.198.444V35.75h-.442v5.866h.442v-3.427zm9.087 1.307c0-1.165.858-1.818 1.691-1.818.841 0 1.7.653 1.7 1.818s-.859 1.843-1.7 1.843c-.833 0-1.69-.678-1.69-1.843zm3.833 0c0-1.19-.91-2.22-2.142-2.22-1.224 0-2.133 1.03-2.133 2.22 0 1.19.91 2.22 2.133 2.22 1.232 0 2.142-1.03 2.142-2.22zm7.488-2.103l-.892 3.854h-.034l-1.062-3.88h-.46l1.233 4.257h.629l.875-3.796h.026l.884 3.796h.62l1.257-4.257h-.475l-1.063 3.88h-.034l-.909-3.854h-.595zm8.436-.026v4.249h.433v-2.723c-.025-.998 1.029-1.433 1.836-1.048l.178-.36c-.493-.21-1.512-.369-2.022.436l-.068-.553h-.357zm7.646 2.129c0-1.165.857-1.818 1.69-1.818.841 0 1.7.653 1.7 1.818s-.859 1.843-1.7 1.843c-.833 0-1.69-.678-1.69-1.843zm3.832 0c0-1.19-.91-2.22-2.142-2.22-1.224 0-2.133 1.03-2.133 2.22 0 1.19.91 2.22 2.133 2.22 1.232 0 2.142-1.03 2.142-2.22zm5.636 0c0-1.165.858-1.818 1.69-1.818.842 0 1.7.653 1.7 1.818s-.858 1.843-1.7 1.843c-.832 0-1.69-.678-1.69-1.843zm3.832 0c0-1.19-.909-2.22-2.141-2.22-1.224 0-2.133 1.03-2.133 2.22 0 1.19.91 2.22 2.133 2.22 1.232 0 2.141-1.03 2.141-2.22zm7.166-1.81c.824 0 1.275.436 1.309 1.316l.017 2.614h.416v-2.614c.009-1.006.586-1.308 1.258-1.308.654 0 1.24.403 1.24 1.391v2.531h.442v-2.53c0-1.291-.756-1.785-1.682-1.785-.57 0-1.113.092-1.487.837-.264-.628-.757-.812-1.496-.846-.425 0-.892.143-1.198.436l-.06-.36h-.382v4.248h.442v-3.444c.28-.335.697-.494 1.181-.486z" fill="#000"/></svg>