<svg width="101" height="88" fill="none" xmlns="http://www.w3.org/2000/svg"><path d="M109.39 30.821L93.474 19.58V3.158A3.537 3.537 0 0090.442 0H20.716a3.537 3.537 0 00-3.032 3.158v16.295L1.137 30.82A2.778 2.778 0 000 32.842v60A3.663 3.663 0 003.158 96H108c1.39 0 1.895-1.642 1.895-3.158v-60c0-.758.126-1.516-.505-2.02zm-15.916-5.179l10.863 7.453-10.863 8.21V25.642zM22.737 5.052h65.684v40.17L55.58 69.978 22.737 45.221V5.053zm-5.053 20.464v15.916L6.821 33.095l10.863-7.58zM5.053 38.274L40.42 65.053 5.053 88.927V38.274zm6.063 52.674l33.6-22.61 8.968 6.82a3.03 3.03 0 001.769.632c.505 0 .758-.253 1.263-.632l9.347-7.2 33.979 22.99H11.116zm93.727-2.906L70.232 64.8l34.611-26.526v49.768z" fill="#D6D6D6"/><path d="M35.368 21.474h11.368a2.526 2.526 0 100-5.052H35.368a2.526 2.526 0 000 5.052zm0 11.369H75.79a2.526 2.526 0 100-5.053H35.37a2.526 2.526 0 000 5.053zm42.948 8.841a2.526 2.526 0 00-2.527-2.526H35.37a2.526 2.526 0 100 5.053h40.42a2.526 2.526 0 002.526-2.527z" fill="#D6D6D6"/></svg>