<svg width="97" height="110" fill="none" xmlns="http://www.w3.org/2000/svg"><path d="M110.262 94.12l-84.379-.014c-6.49 0-11.765-5.28-11.765-11.765V35.295a2.357 2.357 0 00-2.353-2.353H2.353a2.354 2.354 0 010-4.706h9.412c3.892 0 7.059 3.167 7.059 7.06V82.34c0 3.892 3.167 7.059 7.059 7.059l84.379.014a2.354 2.354 0 012.353 2.353 2.354 2.354 0 01-2.353 2.353zm-67.908 18.824c-5.19 0-9.412-4.221-9.412-9.412 0-5.19 4.222-9.412 9.412-9.412 5.191 0 9.412 4.221 9.412 9.412 0 5.191-4.22 9.412-9.412 9.412zm0-14.118a4.71 4.71 0 00-4.706 4.706 4.71 4.71 0 004.706 4.706 4.71 4.71 0 004.706-4.706 4.71 4.71 0 00-4.706-4.706zm47.06 14.118c-5.19 0-9.412-4.221-9.412-9.412 0-5.19 4.221-9.412 9.412-9.412 5.19 0 9.412 4.221 9.412 9.412 0 5.191-4.221 9.412-9.412 9.412zm0-14.118a4.71 4.71 0 00-4.706 4.706 4.71 4.71 0 004.706 4.706 4.71 4.71 0 004.706-4.706 4.71 4.71 0 00-4.706-4.706z" fill="#D6D6D6"/><path d="M63.531 84.708H25.883a2.354 2.354 0 01-2.353-2.353V2.353A2.354 2.354 0 0125.883 0h37.648a2.354 2.354 0 012.353 2.353v80.002a2.354 2.354 0 01-2.353 2.353zm-35.295-4.706h32.942V4.706H28.236v75.296z" fill="#D6D6D6"/><path d="M105.885 84.708H63.531a2.354 2.354 0 01-2.353-2.353V44.707a2.354 2.354 0 012.353-2.353h42.354a2.354 2.354 0 012.353 2.353v37.648a2.354 2.354 0 01-2.353 2.353zm-40.001-4.706h37.648V47.06H65.884v32.942z" fill="#D6D6D6"/><path d="M101.179 47.06H72.943a2.354 2.354 0 01-2.353-2.353v-23.53a2.354 2.354 0 012.353-2.353h28.236a2.354 2.354 0 012.353 2.353v23.53a2.354 2.354 0 01-2.353 2.353zm-25.883-4.706h23.53V23.53h-23.53v18.824z" fill="#D6D6D6"/></svg>