<svg width="92" height="94" fill="none" xmlns="http://www.w3.org/2000/svg"><path d="M62.9 59.5h-1.87a1.673 1.673 0 01-1.574-1.098 27.682 27.682 0 00-.67-1.603 1.677 1.677 0 01.34-1.898l1.333-1.334a5.112 5.112 0 00-.009-7.206l-4.804-4.804a5.112 5.112 0 00-7.208 0l-1.333 1.33c-.498.5-1.256.636-1.897.34a36.61 36.61 0 00-1.605-.68A1.671 1.671 0 0142.5 40.97V39.1a5.1 5.1 0 00-5.1-5.1h-6.8a5.1 5.1 0 00-5.1 5.1v1.87a1.673 1.673 0 01-1.098 1.574c-.544.208-1.076.43-1.603.67a1.681 1.681 0 01-1.898-.34l-1.334-1.333a5.112 5.112 0 00-7.206 0l-4.805 4.82a5.112 5.112 0 000 7.208L8.889 54.9c.502.498.638 1.257.34 1.898-.24.527-.463 1.059-.672 1.605A1.67 1.67 0 016.97 59.5H5.1A5.1 5.1 0 000 64.6v6.8a5.1 5.1 0 005.1 5.1h1.87a1.673 1.673 0 011.574 1.098c.208.544.43 1.076.67 1.603.298.641.162 1.4-.34 1.898l-1.333 1.334a5.112 5.112 0 000 7.206l4.804 4.805a5.112 5.112 0 007.208 0l1.333-1.332a1.683 1.683 0 011.897-.34c.527.24 1.06.463 1.605.68.668.238 1.113.87 1.112 1.578v1.87a5.1 5.1 0 005.1 5.1h6.8a5.1 5.1 0 005.1-5.1v-1.87a1.673 1.673 0 011.098-1.574c.544-.208 1.076-.43 1.603-.67a1.681 1.681 0 011.898.34l1.334 1.333a5.114 5.114 0 007.206-.009l4.804-4.804a5.112 5.112 0 000-7.208l-1.33-1.333a1.676 1.676 0 01-.34-1.897c.24-.527.462-1.059.68-1.605A1.671 1.671 0 0161.03 76.5h1.87a5.1 5.1 0 005.1-5.1v-6.8a5.1 5.1 0 00-5.1-5.1zm1.7 11.9a1.7 1.7 0 01-1.7 1.7h-1.87a5.117 5.117 0 00-4.76 3.288c-.18.476-.375.944-.585 1.406a5.115 5.115 0 001.02 5.705l1.33 1.331a1.7 1.7 0 010 2.404v.002L53.23 92.04a1.7 1.7 0 01-2.403 0l-1.333-1.331a5.11 5.11 0 00-5.705-1.02c-.461.209-.93.404-1.403.584A5.116 5.116 0 0039.1 95.03v1.87a1.7 1.7 0 01-1.7 1.7h-6.8a1.7 1.7 0 01-1.7-1.7v-1.87a5.117 5.117 0 00-3.288-4.76c-.476-.18-.944-.375-1.406-.585a5.117 5.117 0 00-5.705 1.02l-1.331 1.33a1.7 1.7 0 01-2.404 0h-.002l-4.804-4.8a1.7 1.7 0 010-2.403l1.331-1.333a5.115 5.115 0 001.02-5.705c-.209-.461-.404-.93-.584-1.403A5.115 5.115 0 006.97 73.1H5.1a1.7 1.7 0 01-1.7-1.7v-6.8a1.7 1.7 0 011.7-1.7h1.87a5.117 5.117 0 004.76-3.288c.18-.476.375-.944.585-1.406a5.115 5.115 0 00-1.02-5.705L9.959 51.17a1.7 1.7 0 01-.002-2.404l.002-.002 4.804-4.804a1.7 1.7 0 012.404 0l1.332 1.331a5.11 5.11 0 005.706 1.02c.46-.209.93-.404 1.402-.584A5.115 5.115 0 0028.9 40.97V39.1a1.7 1.7 0 011.7-1.7h6.8a1.7 1.7 0 011.7 1.7v1.87a5.117 5.117 0 003.288 4.76c.476.18.944.375 1.406.585a5.11 5.11 0 005.705-1.02l1.331-1.33a1.71 1.71 0 012.406 0l4.804 4.805a1.7 1.7 0 010 2.403l-1.331 1.333a5.116 5.116 0 00-1.02 5.705c.209.461.404.93.584 1.403A5.116 5.116 0 0061.03 62.9h1.87a1.7 1.7 0 011.7 1.7v6.8z" fill="#D6D6D6"/><path d="M49.266 67.32a15.353 15.353 0 00-.304-2.51c-.06-.276-.138-.55-.213-.825-.095-.35-.202-.696-.32-1.036-.084-.236-.17-.47-.26-.703a15.141 15.141 0 00-.749-1.592c-.022-.039-.036-.081-.058-.12a15.076 15.076 0 00-1.53-2.23c-.05-.06-.105-.118-.156-.178a14.226 14.226 0 00-.73-.802c-.132-.138-.271-.267-.41-.4a15.945 15.945 0 00-1.14-.984l-.28-.207A15.192 15.192 0 0034 52.7c-.17 0-.34.025-.51.032a14.803 14.803 0 00-1.67.138c-.553.073-1.103.176-1.646.308-8.186 2.115-13.107 10.466-10.992 18.651a15.309 15.309 0 0011.003 10.995c.028 0 .056.008.085.015.588.147 1.182.26 1.782.34.396.05.792.06 1.19.078.265.014.51.053.787.053.485 0 .988-.032 1.501-.083.055 0 .109-.015.17-.022.413-.046.831-.107 1.258-.192.17-.033.328-.075.492-.113.299-.07.596-.142.902-.232.238-.072.47-.155.702-.237.233-.081.475-.17.716-.261.241-.092.444-.198.663-.3.286-.13.57-.26.85-.413h.01a20.127 20.127 0 004.357-3.146c.353-.33.66-.705.912-1.116a18.148 18.148 0 002.675-7.978c.024-.308.041-.614.048-.92 0-.096.014-.188.014-.285.001-.24-.023-.46-.033-.692zm-3.388 1.114c0 .14-.012.282-.02.421-.03.411-.084.823-.153 1.236a11.925 11.925 0 01-5.974 8.33c-.21.11-.418.214-.626.31l-.14.067c-.989.449-2.031.764-3.102.939-.074.012-.15.025-.227.035a10.894 10.894 0 01-1.459.118h-.355c-.403-.005-.804-.03-1.204-.075l-.204-.024a12.593 12.593 0 01-1.389-.262c-6.367-1.63-10.207-8.112-8.578-14.479a11.9 11.9 0 018.566-8.574v-.002A12.31 12.31 0 0134 56.1c.486.003.972.036 1.454.099.129.015.256.039.384.057.367.058.73.131 1.09.223.117.03.234.058.35.09a12 12 0 012.592 1.092c.131.076.259.156.388.236.268.17.529.34.785.534.138.1.277.199.41.306.334.266.653.55.957.85.12.122.231.256.349.384a11.804 11.804 0 01.933 1.146c.17.245.34.5.493.758l.257.423c.219.404.414.82.584 1.246.068.17.126.34.187.51.11.313.206.63.29.949.042.17.09.321.125.486.1.46.172.924.216 1.392.01.124.01.25.019.374.024.391.03.784.015 1.178zM96.9 35.7h-5.347a1.66 1.66 0 01-1.584-1.115 35.426 35.426 0 00-1.909-4.609 1.664 1.664 0 01.326-1.92l3.791-3.795a5.1 5.1 0 000-7.21L84.95 9.835a5.1 5.1 0 00-7.21 0l-3.789 3.787a1.664 1.664 0 01-1.918.328 35.325 35.325 0 00-4.61-1.92 1.66 1.66 0 01-1.122-1.583V5.1A5.1 5.1 0 0061.2 0H51a5.1 5.1 0 00-5.1 5.1v5.347a1.66 1.66 0 01-1.115 1.584c-1.58.53-3.12 1.17-4.609 1.917a1.66 1.66 0 01-1.92-.326l-3.795-3.79a5.11 5.11 0 00-7.21 0l-7.215 7.214a5.1 5.1 0 000 7.211l5.574 5.585a1.7 1.7 0 002.408-2.4l-5.578-5.583a1.7 1.7 0 010-2.404l7.215-7.215a1.7 1.7 0 012.404 0l3.797 3.791a5.054 5.054 0 005.842.959 32.158 32.158 0 014.166-1.732 5.057 5.057 0 003.436-4.811V5.1A1.7 1.7 0 0151 3.4h10.2a1.7 1.7 0 011.7 1.7v5.347a5.055 5.055 0 003.436 4.809 32.072 32.072 0 014.168 1.734 5.066 5.066 0 005.84-.96l3.797-3.79a1.7 1.7 0 012.404 0l7.215 7.216a1.7 1.7 0 010 2.403l-3.791 3.797a5.06 5.06 0 00-.959 5.842 32.172 32.172 0 011.733 4.166 5.055 5.055 0 004.81 3.436H96.9a1.7 1.7 0 011.7 1.7V51a1.7 1.7 0 01-1.7 1.7h-5.347a5.056 5.056 0 00-4.809 3.436 32.039 32.039 0 01-1.734 4.168 5.061 5.061 0 00.96 5.84l3.792 3.797a1.7 1.7 0 010 2.404l-7.219 7.215a1.7 1.7 0 01-2.402 0l-5.586-5.574a1.7 1.7 0 10-2.4 2.407l5.584 5.574a5.1 5.1 0 007.21 0l7.215-7.213a5.1 5.1 0 000-7.211l-3.786-3.793a1.666 1.666 0 01-.328-1.918 35.43 35.43 0 001.92-4.61 1.659 1.659 0 011.584-1.122H96.9A5.1 5.1 0 00102 51V40.8a5.1 5.1 0 00-5.1-5.1z" fill="#D6D6D6"/><path d="M71.726 30.273c-8.636-8.617-22.617-8.617-31.253 0a1.7 1.7 0 002.404 2.404c7.254-7.351 19.094-7.43 26.445-.177 7.352 7.254 7.431 19.094.177 26.445-.058.06-.117.119-.177.177a1.7 1.7 0 102.404 2.404c8.618-8.635 8.618-22.617 0-31.253z" fill="#D6D6D6"/></svg>