<svg width="84" height="96" fill="none" xmlns="http://www.w3.org/2000/svg"><path d="M47.062 10.644a1.967 1.967 0 100-3.935 1.967 1.967 0 000 3.935zm1.968 101.74V36.002a1.967 1.967 0 10-3.935 0v76.382a1.968 1.968 0 103.935 0zm-7.25-75.572a2.78 2.78 0 00-2.777-2.778H16.586a2.78 2.78 0 00-2.777 2.778v6.007a2.78 2.78 0 002.777 2.778h22.417a2.78 2.78 0 002.777-2.778v-6.007zm-3.935 4.85H17.744v-3.693h20.101v3.693zm1.968 9.616h-5.702a1.967 1.967 0 100 3.935h5.702a1.967 1.967 0 100-3.935zm-24.037 3.935h11.776a1.967 1.967 0 100-3.935H15.776a1.967 1.967 0 100 3.935zm24.037 4.322h-5.702a1.967 1.967 0 100 3.935h5.702a1.967 1.967 0 100-3.935zM15.776 63.47h11.776a1.967 1.967 0 100-3.935H15.776a1.967 1.967 0 100 3.935zm24.037 4.325h-5.702a1.967 1.967 0 100 3.935h5.702a1.967 1.967 0 100-3.935zM15.776 71.73h11.776a1.967 1.967 0 100-3.935H15.776a1.967 1.967 0 100 3.935zm24.037 4.325h-5.702a1.967 1.967 0 100 3.935h5.702a1.967 1.967 0 100-3.935zM15.776 79.99h11.776a1.967 1.967 0 100-3.935H15.776a1.967 1.967 0 100 3.935zm24.037 4.324h-5.702a1.967 1.967 0 100 3.935h5.702a1.967 1.967 0 100-3.935zm-24.037 3.935h11.776a1.967 1.967 0 100-3.935H15.776a1.967 1.967 0 100 3.935zm24.037 4.321h-5.702a1.967 1.967 0 100 3.936h5.702a1.967 1.967 0 100-3.935zm-24.037 3.936h11.776a1.967 1.967 0 100-3.935H15.776a1.967 1.967 0 100 3.935zm64.541-59.675a2.8 2.8 0 00-2.797-2.797H55.143a2.8 2.8 0 00-2.797 2.797v6.34a2.8 2.8 0 002.797 2.797H77.52a2.8 2.8 0 002.797-2.797v-6.34zm-3.935 5.202H56.281v-4.064h20.101v4.064zm-22.069 13.18h5.702a1.967 1.967 0 100-3.935h-5.702a1.967 1.967 0 100 3.935zm24.037-3.935H66.574a1.967 1.967 0 100 3.935H78.35a1.967 1.967 0 100-3.935zM54.313 63.47h5.702a1.967 1.967 0 100-3.935h-5.702a1.967 1.967 0 100 3.935zm24.037-3.935H66.574a1.967 1.967 0 100 3.935H78.35a1.967 1.967 0 100-3.935zM54.313 71.73h5.702a1.967 1.967 0 100-3.935h-5.702a1.967 1.967 0 100 3.935zm24.037-3.935H66.574a1.967 1.967 0 100 3.935H78.35a1.967 1.967 0 100-3.935zM54.313 79.99h5.702a1.967 1.967 0 100-3.935h-5.702a1.967 1.967 0 100 3.935zm24.037-3.935H66.574a1.967 1.967 0 100 3.935H78.35a1.967 1.967 0 100-3.935zM54.313 88.249h5.702a1.967 1.967 0 100-3.935h-5.702a1.967 1.967 0 100 3.935zm24.037-3.935H66.574a1.967 1.967 0 100 3.935H78.35a1.967 1.967 0 100-3.935zM54.313 96.506h5.702a1.967 1.967 0 100-3.935h-5.702a1.967 1.967 0 100 3.935zM78.35 92.57H66.574a1.967 1.967 0 100 3.936H78.35a1.967 1.967 0 100-3.935z" fill="#D6D6D6"/><path d="M92.158 100.462a1.968 1.968 0 001.968-1.968V12.087a3.858 3.858 0 00-3.854-3.854H72.014a3.489 3.489 0 00-2.88-1.522H55.516A8.642 8.642 0 0047.063 0a8.64 8.64 0 00-8.455 6.711H24.992a3.489 3.489 0 00-2.88 1.522H3.852A3.858 3.858 0 000 12.087V130.46a3.857 3.857 0 003.853 3.853h86.42a3.857 3.857 0 003.853-3.853v-22.785a1.968 1.968 0 10-3.936 0v22.704H3.936V12.168h17.567v2.624H10.634a4.08 4.08 0 00-4.076 4.075v15.545a1.967 1.967 0 103.935 0V18.867a.14.14 0 01.14-.14h10.87v7.254a5.017 5.017 0 005.011 5.012h41.097a5.017 5.017 0 005.012-5.012v-7.254h10.869a.14.14 0 01.14.14v79.99c0 5.066-4.122 9.188-9.188 9.188h-2.512c-1.045 0-2 .395-2.722 1.044h-2.637a1.967 1.967 0 100 3.935h1.283v1.609c0 5.066-4.122 9.188-9.189 9.188H10.634a.14.14 0 01-.14-.14V43.593a1.967 1.967 0 10-3.936 0v80.088a4.08 4.08 0 004.076 4.075h48.033c7.72 0 14.977-3.006 20.436-8.464 5.458-5.459 8.464-12.716 8.464-20.436V18.867a4.08 4.08 0 00-4.075-4.075h-10.87v-2.624h17.569v86.326c0 1.087.88 1.968 1.967 1.968zM70.106 121.06a13.038 13.038 0 001.685-6.427v-2.512a.14.14 0 01.141-.141h2.512a13.04 13.04 0 006.427-1.685 25.21 25.21 0 01-10.765 10.765zm-1.418-95.079c0 .594-.483 1.077-1.077 1.077H26.514a1.078 1.078 0 01-1.077-1.077v-1.907h24.049a1.967 1.967 0 100-3.935H25.437v-9.493h13.698a3.271 3.271 0 003.247-2.743 4.722 4.722 0 014.68-3.968 4.722 4.722 0 014.681 3.968 3.271 3.271 0 003.247 2.743h13.698v9.493h-10.02a1.967 1.967 0 100 3.935h10.02v1.907z" fill="#D6D6D6"/></svg>