<svg width="110" height="95" fill="none" xmlns="http://www.w3.org/2000/svg"><path d="M92.982 59.921a4.133 4.133 0 100-8.265 4.133 4.133 0 000 8.265zm10.331-35.127h-33.06a2.066 2.066 0 000 4.133h30.994v6.199a2.066 2.066 0 104.132 0V26.86a2.066 2.066 0 00-2.066-2.067zM41.325 82.65H20.912a8.459 8.459 0 01-6.02-2.494 8.581 8.581 0 01-2.495-6.021V66.12a2.066 2.066 0 00-4.132 0v8.015c0 6.984 5.663 12.646 12.647 12.647h20.413a2.066 2.066 0 000-4.132z" fill="#D6D6D6"/><path d="M117.839 80.129a16.541 16.541 0 00-4.195-2.46v-9.482h6.199a2.066 2.066 0 002.066-2.067V45.458a2.066 2.066 0 00-2.066-2.066h-6.199V18.596a2.066 2.066 0 00-2.066-2.066h-8.265v-6.199a2.066 2.066 0 00-2.066-2.066h-16.53V2.066A2.066 2.066 0 0082.65 0H10.507a10.226 10.226 0 00-7.178 2.971l-.356.356a10.087 10.087 0 00-2.868 8.552 1.977 1.977 0 00-.105.519V78.87c0 8.934 7.241 16.176 16.175 16.177h54.22c1.123 9.042 9.363 15.461 18.405 14.339a16.496 16.496 0 008.3-3.512c7.11 5.727 17.516 4.606 23.242-2.503 5.727-7.11 4.606-17.516-2.503-23.243zm-.062-32.605v16.53H91.062a8.265 8.265 0 110-16.53h26.715zM5.895 6.25l.353-.353a6.056 6.056 0 014.259-1.764h70.077v4.132h-66.12a2.066 2.066 0 000 4.133H99.18v4.132H10.156A6.023 6.023 0 015.895 6.25zm64.5 84.666h-54.22c-6.651 0-12.042-5.392-12.042-12.043V18.652c1.741 1.296 3.852 2 6.023 2.01h99.356v22.73h-18.45c-6.847 0-12.397 5.55-12.397 12.397s5.55 12.398 12.397 12.398h18.45v8.407a16.656 16.656 0 00-2.066-.142 16.38 16.38 0 00-10.332 3.642c-7.098-5.713-17.484-4.59-23.198 2.508a16.5 16.5 0 00-3.52 8.314zm16.388 14.463c-6.847 0-12.398-5.55-12.398-12.397s5.55-12.398 12.398-12.398c6.847 0 12.398 5.55 12.398 12.398-.007 6.844-5.554 12.39-12.398 12.397zm20.663 0a12.292 12.292 0 01-7.451-2.504 16.407 16.407 0 000-19.786 12.278 12.278 0 017.451-2.505c6.847 0 12.397 5.55 12.397 12.398 0 6.847-5.55 12.397-12.397 12.397z" fill="#D6D6D6"/></svg>