<svg width="90" height="96" fill="none" xmlns="http://www.w3.org/2000/svg"><path d="M73.116 55.283h-21.4V37.45c0-3.032-2.318-5.35-5.35-5.35h-1.783c-3.032 0-5.35 2.318-5.35 5.35v23.183h-3.567c-3.032 0-5.35 2.318-5.35 5.35v13.018l10.7 19.617V107h32.1v-8.56l5.35-12.483V60.633c0-3.032-2.318-5.35-5.35-5.35zm-28.533 48.15v-3.566H69.55v3.566H44.583zM74.9 85.243L70.084 96.3H43.87l-9.987-18.368V65.983c0-1.07.713-1.783 1.783-1.783h3.567v7.133H42.8V37.45c0-1.07.713-1.783 1.783-1.783h1.783c1.07 0 1.784.713 1.784 1.783v30.317h3.566V58.85h5.35v8.917h3.567V58.85h5.35v8.917h3.567V58.85h3.566c1.07 0 1.784.713 1.784 1.783v24.61z" fill="#D6D6D6"/><path d="M65.983 86.849l-3.21 4.814 2.853 2.14 3.924-5.885V80.25h-3.567v6.599z" fill="#D6D6D6"/><path d="M79.715 0H9.451L0 24.61v66.34h32.1v-3.567H3.567V26.75h21.4v-3.567H4.458L9.095 10.7h21.222V7.133H10.52l1.428-3.566h65.269l1.427 3.566H58.85V10.7h21.221l4.637 12.483H64.2v3.567h21.4v60.633h-3.567v3.567h7.134V24.61L79.715 0z" fill="#D6D6D6"/><path d="M38.699 21.935L36.2 24.432l4.816 4.814 10.165-10.164-2.498-2.497-7.667 7.668-2.319-2.318z" fill="#D6D6D6"/><path d="M56.71 33.883c5.885-6.598 5.172-16.763-1.427-22.648-6.776-5.885-16.941-5.35-22.826 1.248-5.886 6.599-5.172 16.763 1.426 22.649l2.318-2.675c-5.171-4.637-5.706-12.483-1.07-17.656 4.637-5.171 12.484-5.706 17.656-1.07 5.171 4.637 5.706 12.484 1.07 17.656l2.852 2.496z" fill="#D6D6D6"/></svg>