<svg width="20" height="20" fill="none" xmlns="http://www.w3.org/2000/svg"><path fill-rule="evenodd" clip-rule="evenodd" d="M5.861 5C6.106 3.18 7.926 1.667 10 1.667c2.074 0 3.894 1.512 4.139 3.333h2.4a1.667 1.667 0 011.65 1.902l-1.428 10a1.667 1.667 0 01-1.65 1.431H4.889c-.829 0-1.532-.61-1.65-1.43l-1.428-10A1.667 1.667 0 013.461 5h2.4zm6.579 0c-.253-.885-1.275-1.667-2.44-1.667S7.813 4.115 7.56 5h4.88zM3.46 6.667h2.373v1.666H7.5V6.667h5v1.666h1.667V6.667h2.372l-1.428 10H4.889l-1.428-10z" fill="#000"/></svg>