<svg width="20" height="20" fill="none" xmlns="http://www.w3.org/2000/svg"><path fill-rule="evenodd" clip-rule="evenodd" d="M13.794 1.667c-1.206 0-1.984.143-2.875.58a5.09 5.09 0 00-.927.583 5.25 5.25 0 00-.89-.557c-.91-.449-1.727-.606-2.89-.606C3.097 1.667.833 4.247.833 7.6c0 2.532 1.412 4.977 4.041 7.342 1.38 1.24 3.142 2.47 4.404 3.123l.722.373.722-.373c1.262-.654 3.024-1.882 4.404-3.123 2.63-2.365 4.04-4.81 4.04-7.342 0-3.317-2.284-5.92-5.372-5.933zM17.5 7.6c0 1.983-1.178 4.024-3.489 6.102-1.26 1.133-2.878 2.265-4.011 2.86-1.132-.595-2.752-1.727-4.011-2.86C3.679 11.624 2.5 9.583 2.5 7.6c0-2.477 1.57-4.267 3.712-4.267.925 0 1.495.11 2.15.434.388.192.73.445 1.027.761l.613.654.607-.659a3.512 3.512 0 011.043-.78c.636-.31 1.17-.41 2.139-.41 2.116.01 3.709 1.824 3.709 4.267z" fill="#000"/></svg>