<svg width="9" height="9" fill="none" xmlns="http://www.w3.org/2000/svg"><path fill-rule="evenodd" clip-rule="evenodd" d="M2.475 1.5a.976.976 0 00-.975.975A5.03 5.03 0 006.525 7.5a.976.976 0 00.967-1.098L5.76 6.005c-.035.066-.073.137-.107.204-.171.326-.295.563-.61.436A4.452 4.452 0 012.35 3.943c-.134-.295.121-.428.444-.597l.202-.105-.398-1.733a.976.976 0 00-.123-.008zm4.05 6.75A5.781 5.781 0 01.75 2.475 1.727 1.727 0 013.034.843a.376.376 0 01.243.27L3.79 3.35a.374.374 0 01-.095.344c-.05.053-.052.054-.517.297a3.73 3.73 0 001.83 1.832c.244-.466.245-.467.298-.518a.379.379 0 01.344-.095l2.237.513c.125.03.228.12.27.242a1.707 1.707 0 01.093.56c0 .951-.774 1.725-1.725 1.725z" fill="#969696"/><mask id="a" maskUnits="userSpaceOnUse" x="0" y="0" width="9" height="9"><path fill-rule="evenodd" clip-rule="evenodd" d="M2.475 1.5a.976.976 0 00-.975.975A5.03 5.03 0 006.525 7.5a.976.976 0 00.967-1.098L5.76 6.005c-.035.066-.073.137-.107.204-.171.326-.295.563-.61.436A4.452 4.452 0 012.35 3.943c-.134-.295.121-.428.444-.597l.202-.105-.398-1.733a.976.976 0 00-.123-.008zm4.05 6.75A5.781 5.781 0 01.75 2.475 1.727 1.727 0 013.034.843a.376.376 0 01.243.27L3.79 3.35a.374.374 0 01-.095.344c-.05.053-.052.054-.517.297a3.73 3.73 0 001.83 1.832c.244-.466.245-.467.298-.518a.379.379 0 01.344-.095l2.237.513c.125.03.228.12.27.242a1.707 1.707 0 01.093.56c0 .951-.774 1.725-1.725 1.725z" fill="#fff"/></mask><g mask="url(#a)"><path fill="#969696" d="M0 0h9v9H0z"/></g></svg>